HIERARCHY
ROOT Hips
{
	OFFSET 0.000000 0.000000 0.000000
	CHANNELS 6 Xposition Yposition Zposition Zrotation Yrotation Xrotation 
	JOINT LHipJoint
	{
		OFFSET 0.000000 0.000000 0.000000
		CHANNELS 3 Zrotation Yrotation Xrotation
		JOINT LeftUpLeg
		{
			OFFSET 1.363060 -1.794630 0.839290
			CHANNELS 3 Zrotation Yrotation Xrotation
			JOINT LeftLeg
			{
				OFFSET 2.448110 -6.726130 0.000000
				CHANNELS 3 Zrotation Yrotation Xrotation
				JOINT LeftFoot
				{
					OFFSET 2.562200 -7.039590 0.000000
					CHANNELS 3 Zrotation Yrotation Xrotation
					JOINT LeftToeBase
					{
						OFFSET 0.157640 -0.433110 2.322550
						CHANNELS 3 Zrotation Yrotation Xrotation
						End Site
						{
							OFFSET 0.000000 0.000000 0.000000
						}
					}
				}
			}
		}
	}
	JOINT RHipJoint
	{
		OFFSET 0.000000 0.000000 0.000000
		CHANNELS 3 Zrotation Yrotation Xrotation
		JOINT RightUpLeg
		{
			OFFSET -1.305520 -1.794630 0.839290
			CHANNELS 3 Zrotation Yrotation Xrotation
			JOINT RightLeg
			{
				OFFSET -2.542530 -6.985550 0.000000
				CHANNELS 3 Zrotation Yrotation Xrotation
				JOINT RightFoot
				{
					OFFSET -2.568260 -7.056230 0.000000
					CHANNELS 3 Zrotation Yrotation Xrotation
					JOINT RightToeBase
					{
						OFFSET -0.164730 -0.452590 2.363150
						CHANNELS 3 Zrotation Yrotation Xrotation
						End Site
						{
							OFFSET 0.000000 0.000000 0.000000
						}
					}
				}
			}
		}
	}
	JOINT LowerBack
	{
		OFFSET 0.000000 0.000000 0.000000
		CHANNELS 3 Zrotation Yrotation Xrotation
		JOINT Spine
		{
			OFFSET 0.028270 2.035590 -0.193380
			CHANNELS 3 Zrotation Yrotation Xrotation
			JOINT Spine1
			{
				OFFSET 0.056720 2.048850 -0.042750
				CHANNELS 3 Zrotation Yrotation Xrotation
				JOINT Neck
				{
					OFFSET 0.000000 0.000000 0.000000
					CHANNELS 3 Zrotation Yrotation Xrotation
					JOINT Neck1
					{
						OFFSET -0.054170 1.746240 0.172020
						CHANNELS 3 Zrotation Yrotation Xrotation
						JOINT Head
						{
							OFFSET 0.104070 1.761360 -0.123970
							CHANNELS 3 Zrotation Yrotation Xrotation
							End Site
							{
								OFFSET 0.000000 0.000000 0.000000
							}
						}
					}
				}
				JOINT LeftShoulder
				{
					OFFSET 0.000000 0.000000 0.000000
					CHANNELS 3 Zrotation Yrotation Xrotation
					JOINT LeftArm
					{
						OFFSET 3.362410 1.200890 -0.311210
						CHANNELS 3 Zrotation Yrotation Xrotation
						JOINT LeftForeArm
						{
							OFFSET 4.983000 -0.000000 -0.000000
							CHANNELS 3 Zrotation Yrotation Xrotation
							JOINT LeftHand
							{
								OFFSET 3.483560 -0.000000 -0.000000
								CHANNELS 3 Zrotation Yrotation Xrotation
								JOINT LeftFingerBase
								{
									OFFSET 0.000000 0.000000 0.000000
									CHANNELS 3 Zrotation Yrotation Xrotation
									JOINT LeftHandIndex1
									{
										OFFSET 0.715260 -0.000000 -0.000000
										CHANNELS 3 Zrotation Yrotation Xrotation
										End Site
										{
											OFFSET 0.000000 0.000000 0.000000
										}
									}
								}
								JOINT LThumb
								{
									OFFSET 0.000000 0.000000 0.000000
									CHANNELS 3 Zrotation Yrotation Xrotation
									End Site
									{
										OFFSET 0.000000 0.000000 0.000000
									}
								}
							}
						}
					}
				}
				JOINT RightShoulder
				{
					OFFSET 0.000000 0.000000 0.000000
					CHANNELS 3 Zrotation Yrotation Xrotation
					JOINT RightArm
					{
						OFFSET -3.136600 1.374050 -0.404650
						CHANNELS 3 Zrotation Yrotation Xrotation
						JOINT RightForeArm
						{
							OFFSET -5.241900 -0.000000 -0.000000
							CHANNELS 3 Zrotation Yrotation Xrotation
							JOINT RightHand
							{
								OFFSET -3.444170 -0.000000 -0.000000
								CHANNELS 3 Zrotation Yrotation Xrotation
								JOINT RightFingerBase
								{
									OFFSET 0.000000 0.000000 0.000000
									CHANNELS 3 Zrotation Yrotation Xrotation
									JOINT RightHandIndex1
									{
										OFFSET -0.622530 -0.000000 -0.000000
										CHANNELS 3 Zrotation Yrotation Xrotation
										End Site
										{
											OFFSET 0.000000 0.000000 0.000000
										}
									}
								}
								JOINT RThumb
								{
									OFFSET 0.000000 0.000000 0.000000
									CHANNELS 3 Zrotation Yrotation Xrotation
									End Site
									{
										OFFSET 0.000000 0.000000 0.000000
									}
								}
							}
						}
					}
				}
			}
		}
	}
}
MOTION
Frames: 8
Frame Time: 0.008333
6.562039 16.990532 0.358090 17.527981 61.642777 35.627334 -11.145224 5.883275 0.078806 -14.008204 17.518795 -8.205353 -2.403115 1.086687 20.135549 0.091375 -2.155529 14.704421 -0.668000 0.000001 -82.933901 8.272412 -1.401792 5.541080 15.788892 4.469850 -37.232638 2.964184 1.834851 5.969793 -2.477260 -8.718416 -7.980184 -1.044400 -0.000000 -3.296500 3.931665 -3.952948 -6.128000 0.242970 -4.508181 -3.837758 -7.019093 -4.467868 0.739923 6.708289 -14.180908 -8.128263 -4.196519 -0.318221 -0.118963 0.000000 0.000000 0.000000 2.639572 6.352223 0.919833 -35.791518 -11.698715 2.775298 -179.350029 -76.707121 179.930865 9.230904 0.547164 0.011071 -0.301083 0.463331 -0.000000 0.000000 0.000000 0.000000 0.000000 0.000000 0.000000 13.865673 -10.398458 -0.611960 67.762489 -1.324611 10.895201 0.024869 86.201928 0.004307 0.020256 2.708883 0.001256 0.027306 -0.308420 0.000000 0.000000 0.000000 0.000000 0.000000 0.000000 0.000000 
6.748469 16.962579 0.442537 17.285882 61.432272 35.566137 -11.314113 5.952891 0.184252 -13.592639 17.658561 -8.823288 -2.254618 1.196521 21.722980 0.114135 -3.021894 16.026112 -1.064700 0.000000 -84.616400 8.148804 -1.480812 5.744710 15.568055 5.378652 -37.938422 2.855981 1.556662 8.638873 -2.647558 -8.794580 -9.499739 179.259000 0.000000 -2.863800 4.370926 -3.885206 -6.498492 0.355764 -4.491284 -3.913473 -6.936040 -4.455822 0.772360 6.449255 -14.181171 -8.208059 -4.230484 -0.320475 -0.141618 0.000000 0.000000 0.000000 2.012591 6.590750 0.919536 -36.412668 -11.751917 2.617968 -179.333962 -76.767064 179.931539 9.255609 0.193663 -0.018958 -0.304766 0.471491 -0.000000 0.000000 0.000000 0.000000 0.000000 0.000000 0.000000 13.785123 -10.364982 -0.600598 67.413231 -1.317667 10.512019 0.053103 85.638868 0.003418 -0.196694 2.634769 -0.004436 0.033229 -0.303637 0.000000 0.000000 0.000000 0.000000 0.000000 0.000000 0.000000 
6.931131 16.940941 0.527195 16.966041 61.207270 35.349653 -11.489425 6.007866 0.271481 -13.104766 17.848566 -9.436472 -2.086266 1.305825 23.392219 0.157024 -3.998952 17.619222 -1.564500 -0.000000 -85.677600 8.041787 -1.553758 5.849590 15.476938 6.016324 -38.567884 2.764428 1.249447 11.451322 -2.774596 -8.714353 -11.010020 179.583200 0.000000 -7.406300 4.790060 -3.813164 -6.754183 0.463840 -4.463760 -3.971277 -6.841094 -4.433630 0.785646 6.229071 -14.138129 -8.270279 -4.262941 -0.322577 -0.160633 0.000000 0.000000 0.000000 1.462431 6.803202 0.911570 -37.329823 -11.725906 2.514649 -179.326675 -76.949493 179.932084 9.315834 -0.170625 -0.050292 -0.308325 0.479175 -0.000000 0.000000 0.000000 0.000000 0.000000 0.000000 0.000000 13.729871 -10.292012 -0.581246 67.080776 -1.215538 10.135890 0.087706 84.965818 0.002234 -0.473457 2.549877 -0.011330 0.039733 -0.298834 0.000000 0.000000 0.000000 0.000000 0.000000 0.000000 0.000000 
7.108403 16.925447 0.612713 16.586314 60.962352 34.982213 -11.660833 6.043159 0.331161 -12.556453 18.083781 -10.017757 -1.902787 1.410549 25.131927 0.224633 -5.035974 19.431164 -2.162600 0.000000 -85.946300 7.957430 -1.615802 5.853832 15.512954 6.373130 -39.019897 2.692369 0.939843 14.214908 -2.858447 -8.505983 -12.480171 179.909200 0.000000 -10.567500 5.163703 -3.742692 -6.878880 0.561538 -4.428149 -4.007247 -6.736567 -4.403753 0.779835 6.063526 -14.050702 -8.311907 -4.291917 -0.324374 -0.174914 0.000000 0.000000 0.000000 1.011105 6.985994 0.895274 -38.522969 -11.609571 2.464062 -179.330902 -77.264191 179.932391 9.420631 -0.527122 -0.081641 -0.311620 0.485753 -0.000000 0.000000 0.000000 0.000000 0.000000 0.000000 0.000000 13.708969 -10.182879 -0.554997 66.780969 -1.007831 9.781823 0.128352 84.182255 0.000786 -0.808170 2.449535 -0.019032 0.046681 -0.293984 0.000000 0.000000 0.000000 0.000000 0.000000 0.000000 0.000000 
7.279155 16.915791 0.699725 16.146591 60.695063 34.468063 -11.820814 6.052919 0.354324 -11.953920 18.357674 -10.561385 -1.711504 1.507372 26.940033 0.317422 -6.060065 21.360260 -2.830900 -0.000001 -85.240300 7.893709 -1.665924 5.773009 15.660966 6.495527 -39.208190 2.640967 0.656934 16.727729 -2.910333 -8.231636 -13.878144 -179.780400 0.000000 -12.638600 5.479524 -3.676584 -6.873975 0.645562 -4.385989 -4.021589 -6.627266 -4.367607 0.753786 5.965274 -13.916453 -8.328133 -4.316697 -0.325873 -0.182704 0.000000 0.000000 0.000000 0.668950 7.127050 0.871275 -39.948673 -11.378670 2.457062 -179.348407 -77.705618 179.932420 9.571987 -0.858567 -0.111917 -0.314370 0.490580 -0.000000 0.000000 0.000000 0.000000 0.000000 0.000000 0.000000 13.731528 -10.037274 -0.522455 66.524134 -0.695496 9.464348 0.173871 83.299967 -0.000902 -1.193409 2.328763 -0.027037 0.053901 -0.289067 0.000000 0.000000 0.000000 0.000000 0.000000 0.000000 0.000000 
7.442657 16.911140 0.789050 15.667036 60.401978 33.834166 -11.961114 6.034940 0.337999 -11.316591 18.657651 -11.068189 -1.521003 1.594883 28.813062 0.431018 -6.977775 23.287953 -3.513200 -0.000000 -83.490300 7.849316 -1.706181 5.620738 15.902477 6.410542 -39.101401 2.613507 0.416217 18.878029 -2.935539 -7.911222 -15.189320 -179.494600 -0.000000 -13.864100 5.720692 -3.618201 -6.749700 0.712046 -4.339532 -4.015082 -6.517895 -4.327224 0.711255 5.942208 -13.740167 -8.318482 -4.335240 -0.326940 -0.183423 0.000000 0.000000 0.000000 0.433092 7.232012 0.840937 -41.540433 -11.039694 2.488702 -179.379794 -78.273721 179.932164 9.764123 -1.147974 -0.139931 -0.316260 0.493133 -0.000000 0.000000 0.000000 0.000000 0.000000 0.000000 0.000000 13.799640 -9.862172 -0.486670 66.324215 -0.278899 9.203355 0.222801 82.334565 -0.002773 -1.616809 2.185854 -0.034746 0.061160 -0.284087 0.000000 0.000000 0.000000 0.000000 0.000000 0.000000 0.000000 
7.598644 16.910527 0.881548 15.172719 60.082910 33.119729 -12.075198 5.989413 0.282634 -10.667010 18.968716 -11.551703 -1.338956 1.674307 30.750414 0.557208 -7.679746 25.080403 -4.126100 0.000000 -80.708201 7.822027 -1.739313 5.416396 16.208286 6.161805 -38.697353 2.609675 0.226933 20.594757 -2.940383 -7.566129 -16.394492 -179.240700 0.000000 -14.430100 5.873748 -3.570319 -6.527630 0.757926 -4.291479 -3.990814 -6.413769 -4.285104 0.656242 5.997609 -13.528217 -8.282683 -4.346106 -0.327513 -0.176527 0.000000 0.000000 0.000000 0.293693 7.302914 0.806699 -43.219801 -10.594362 2.552554 -179.424068 -78.959259 179.931734 9.981349 -1.378909 -0.163787 -0.316892 0.492933 -0.000000 0.000000 0.000000 0.000000 0.000000 0.000000 0.000000 13.912656 -9.664269 -0.450967 66.192835 0.232490 9.018158 0.273245 81.310999 -0.004746 -2.061922 2.021760 -0.041360 0.068209 -0.279094 0.000000 0.000000 0.000000 0.000000 0.000000 0.000000 0.000000 
7.747297 16.912807 0.977992 14.694855 59.740073 32.368416 -12.158496 5.919544 0.191658 -10.028578 19.276237 -12.024879 -1.170167 1.749188 32.747476 0.686606 -8.057699 26.613655 -4.572800 -0.000001 -76.980000 7.811015 -1.767332 5.176728 16.546053 5.784922 -38.016854 2.627254 0.090740 21.858832 -2.927325 -7.201443 -17.476358 -179.023900 -0.000000 -14.488800 5.928059 -3.535638 -6.231351 0.780924 -4.244940 -3.951994 -6.319600 -4.244158 0.594124 6.128793 -13.288225 -8.221991 -4.347880 -0.327521 -0.162033 0.000000 0.000000 0.000000 0.232442 7.348255 0.772205 -44.903298 -10.056817 2.646576 -179.478714 -79.751556 179.931293 10.200207 -1.535997 -0.181594 -0.315933 0.489640 -0.000000 0.000000 0.000000 0.000000 0.000000 0.000000 0.000000 14.064314 -9.450364 -0.419519 66.140864 0.826231 8.927826 0.323199 80.258812 -0.006751 -2.509323 1.840391 -0.046276 0.074777 -0.274174 0.000000 0.000000 0.000000 0.000000 0.000000 0.000000 0.000000 
